<?xml version="1.0" encoding="UTF-8"?>
<svg id="Layer_1" data-name="Layer 1" xmlns="http://www.w3.org/2000/svg" xmlns:xlink="http://www.w3.org/1999/xlink" viewBox="0 0 230 153.33">
  <defs>
    <style>
      .cls-1 {
        fill: #fff;
      }

      .cls-2 {
        clip-path: url(#clippath);
      }

      .cls-3 {
        fill: #00008b;
      }

      .cls-4 {
        fill: #cf142b;
      }
    </style>
    <clipPath id="clippath">
      <rect class="cls-3" y="0" width="115" height="76.67"/>
    </clipPath>
  </defs>
  <rect class="cls-3" y="0" width="230" height="153.33"/>
  <polygon class="cls-1" points="57.5 92 61.72 105.79 74.63 100.66 66.99 112.73 78.86 120.12 65.11 121.37 67.01 135.72 57.5 125.22 47.99 135.72 49.89 121.37 36.14 120.12 48.01 112.73 40.37 100.66 53.28 105.79 57.5 92"/>
  <polygon class="cls-1" points="172.5 116.83 174.51 123.39 180.66 120.95 177.02 126.69 182.67 130.21 176.12 130.81 177.03 137.65 172.5 132.65 167.97 137.65 168.87 130.81 162.33 130.21 167.98 126.69 164.34 120.95 170.49 123.39 172.5 116.83"/>
  <polygon class="cls-1" points="143.75 56.13 145.76 62.7 151.91 60.25 148.27 66 153.92 69.52 147.37 70.12 148.28 76.95 143.75 71.95 139.22 76.95 140.12 70.12 133.58 69.52 139.23 66 135.59 60.25 141.74 62.7 143.75 56.13"/>
  <polygon class="cls-1" points="172.5 14.6 174.51 21.17 180.66 18.73 177.02 24.47 182.67 27.99 176.12 28.59 177.03 35.42 172.5 30.42 167.97 35.42 168.87 28.59 162.33 27.99 167.98 24.47 164.34 18.73 170.49 21.17 172.5 14.6"/>
  <polygon class="cls-1" points="198.06 45.91 200.07 52.48 206.21 50.03 202.58 55.78 208.23 59.3 201.68 59.9 202.58 66.73 198.06 61.73 193.53 66.73 194.43 59.9 187.88 59.3 193.54 55.78 189.9 50.03 196.04 52.48 198.06 45.91"/>
  <polygon class="cls-1" points="184 76.67 185.59 80.76 189.79 81.08 186.57 83.93 187.58 88.22 184 85.9 180.42 88.22 181.43 83.93 178.21 81.08 182.41 80.76 184 76.67"/>
  <g>
    <rect class="cls-3" y="0" width="115" height="76.67"/>
    <g class="cls-2">
      <path d="m0,0l115,76.67M115,0L0,76.67"/>
      <polygon class="cls-1" points="112.45 83.47 57.5 46.83 2.55 83.47 -2.55 69.87 44.75 38.33 -2.55 6.8 2.55 -6.8 57.5 29.83 112.45 -6.8 117.55 6.8 70.25 38.33 117.55 69.87 112.45 83.47"/>
      <line x1="59.15" y1="36.62" x2="117.49" y2="75.52"/>
      <polygon class="cls-4" points="116.63 77.8 58.29 38.91 60.01 34.34 118.35 73.23 116.63 77.8"/>
      <line x1="-2.88" y1="1.02" x2="52.71" y2="38.08"/>
      <polygon class="cls-4" points="51.85 40.36 -3.73 3.31 -2.02 -1.26 53.57 35.79 51.85 40.36"/>
      <line y1="79.61" x2="58.34" y2="40.71"/>
      <polygon class="cls-4" points=".86 81.89 -.86 77.32 57.49 38.42 59.2 43 .86 81.89"/>
      <line x1="59.42" y1="34.24" x2="115" y2="-2.81"/>
      <polygon class="cls-4" points="60.27 36.53 58.56 31.96 114.14 -5.1 115.86 -.53 60.27 36.53"/>
      <path d="m57.5,0v76.67M0,38.33h115"/>
      <polygon class="cls-1" points="67.08 76.67 47.92 76.67 47.92 51.11 0 51.11 0 25.56 47.92 25.56 47.92 0 67.08 0 67.08 25.56 115 25.56 115 51.11 67.08 51.11 67.08 76.67"/>
      <path d="m57.5,0v76.67M0,38.33h115"/>
      <polygon class="cls-4" points="63.06 76.67 51.94 76.67 51.94 45.74 0 45.74 0 30.92 51.94 30.92 51.94 0 63.06 0 63.06 30.92 115 30.92 115 45.74 63.06 45.74 63.06 76.67"/>
    </g>
  </g>
</svg>