<?xml version="1.0" encoding="UTF-8"?><svg id="Layer_1" xmlns="http://www.w3.org/2000/svg" viewBox="0 0 230 153.33"><rect y="0" width="230" height="153.33" fill="#fff"/><polyline points="230 61.33 126.5 61.33 126.5 0 103.5 0 103.5 61.33 0 61.33 0 92 103.5 92 103.5 153.33 126.5 153.33 126.5 92 230 92" fill="#d11d23"/><path d="m153.33,102.22h17.14l59.52,39.68v11.43M76.67,51.11h-17.14L0,11.43V0l76.67,51.11Zm0,51.11h17.14l-76.67,51.11H0l76.67-51.11Zm76.67-51.11h-17.14L212.86,0h17.14l-76.67,51.11Z" fill="#d11d23"/><path d="m0,102.22v33.97l50.95-33.97m179.05,0v33.97l-50.95-33.97h50.95ZM0,51.11V17.14l50.95,33.97H0Zm230,0V17.14l-50.95,33.97h50.95Zm-134.17,102.22v-46.75l-70.12,46.75h70.12Zm38.33,0v-46.75l70.12,46.75h-70.12ZM95.83,0v46.75L25.71,0h70.12ZM134.17,0v46.75L204.29,0h-70.12Z" fill="#00305c"/></svg>