<?xml version="1.0" encoding="UTF-8"?><svg id="Layer_1" xmlns="http://www.w3.org/2000/svg" viewBox="0 0 230 153.33"><rect width="230" height="153.33" fill="#de290f"/><polygon points="38.03 15.07 43.17 30.96 59.9 30.93 46.35 40.71 51.55 56.58 38.03 46.74 24.52 56.58 29.72 40.71 16.17 30.93 32.89 30.96 38.03 15.07" fill="#ffde00" fill-rule="evenodd"/><polygon points="79.3 8.05 78.8 13.6 83.94 15.78 78.49 17.01 78.01 22.57 75.15 17.78 69.71 19.04 73.38 14.84 70.5 10.06 75.64 12.26 79.3 8.05" fill="#ffde00" fill-rule="evenodd"/><polygon points="97.17 25.06 94.57 29.99 98.48 33.97 92.98 33.02 90.39 37.96 89.59 32.45 84.08 31.52 89.1 29.06 88.28 23.54 92.17 27.54 97.17 25.06" fill="#ffde00" fill-rule="evenodd"/><polygon points="98.93 50.79 94.48 54.16 96.34 59.42 91.75 56.24 87.32 59.63 88.93 54.29 84.33 51.13 89.91 51.01 91.5 45.67 93.34 50.93 98.93 50.79" fill="#ffde00" fill-rule="evenodd"/><polygon points="83.91 69.01 78.52 70.47 78.26 76.04 75.2 71.37 69.82 72.84 73.32 68.5 70.25 63.85 75.47 65.83 78.96 61.48 78.68 67.05 83.91 69.01" fill="#ffde00" fill-rule="evenodd"/></svg>