<?xml version="1.0" encoding="UTF-8"?><svg id="Layer_1" xmlns="http://www.w3.org/2000/svg" viewBox="0 0 230 153.33"><rect y="141.54" width="230" height="11.8" fill="#c40d3c"/><rect y="129.74" width="230" height="11.8" fill="#fff"/><rect y="117.95" width="230" height="11.79" fill="#c40d3c"/><rect y="106.16" width="230" height="11.8" fill="#fff"/><rect y="94.36" width="230" height="11.8" fill="#c40d3c"/><rect y="82.57" width="230" height="11.79" fill="#fff"/><rect y="70.77" width="230" height="11.8" fill="#c40d3c"/><rect y="58.97" width="230" height="11.79" fill="#fff"/><rect y="47.18" width="230" height="11.8" fill="#c40d3c"/><rect y="35.38" width="230" height="11.8" fill="#fff"/><rect y="23.59" width="230" height="11.8" fill="#c40d3c"/><rect y="11.8" width="230" height="11.79" fill="#fff"/><rect y="0" width="230" height="11.8" fill="#c40d3c"/><rect y="0" width="230" height="153.33" fill="none"/><rect y="0" width="116.54" height="82.57" fill="#011e41"/><polygon points="106.84 3.58 107.9 6.85 111.33 6.84 108.55 8.85 109.62 12.12 106.84 10.09 104.07 12.12 105.14 8.85 102.35 6.84 105.79 6.85 106.84 3.58" fill="#fff"/><polygon points="87.39 3.58 88.44 6.85 91.88 6.84 89.1 8.85 90.17 12.12 87.39 10.09 84.61 12.12 85.68 8.85 82.9 6.84 86.34 6.85 87.39 3.58" fill="#fff"/><polygon points="67.97 3.58 69.02 6.85 72.46 6.84 69.68 8.85 70.75 12.12 67.97 10.09 65.19 12.12 66.26 8.85 63.48 6.84 66.92 6.85 67.97 3.58" fill="#fff"/><polygon points="48.55 3.58 49.61 6.85 53.04 6.84 50.26 8.85 51.33 12.12 48.55 10.09 45.77 12.12 46.84 8.85 44.06 6.84 47.5 6.85 48.55 3.58" fill="#fff"/><polygon points="29.13 3.58 30.19 6.85 33.62 6.84 30.84 8.85 31.91 12.12 29.13 10.09 26.35 12.12 27.43 8.85 24.64 6.84 28.08 6.85 29.13 3.58" fill="#fff"/><polygon points="9.68 3.58 10.73 6.85 14.17 6.84 11.38 8.85 12.46 12.12 9.68 10.09 6.9 12.12 7.97 8.85 5.19 6.84 8.62 6.85 9.68 3.58" fill="#fff"/><polygon points="106.84 20.1 107.9 23.37 111.33 23.36 108.55 25.38 109.62 28.64 106.84 26.62 104.07 28.64 105.14 25.38 102.35 23.36 105.79 23.37 106.84 20.1" fill="#fff"/><polygon points="87.39 20.1 88.44 23.37 91.88 23.36 89.1 25.38 90.17 28.64 87.39 26.62 84.61 28.64 85.68 25.38 82.9 23.36 86.34 23.37 87.39 20.1" fill="#fff"/><polygon points="67.97 20.1 69.02 23.37 72.46 23.36 69.68 25.38 70.75 28.64 67.97 26.62 65.19 28.64 66.26 25.38 63.48 23.36 66.92 23.37 67.97 20.1" fill="#fff"/><polygon points="48.55 20.1 49.61 23.37 53.04 23.36 50.26 25.38 51.33 28.64 48.55 26.62 45.77 28.64 46.84 25.38 44.06 23.36 47.5 23.37 48.55 20.1" fill="#fff"/><polygon points="29.13 20.1 30.19 23.37 33.62 23.36 30.84 25.38 31.91 28.64 29.13 26.62 26.35 28.64 27.43 25.38 24.64 23.36 28.08 23.37 29.13 20.1" fill="#fff"/><polygon points="9.68 20.1 10.73 23.37 14.17 23.36 11.38 25.38 12.46 28.64 9.68 26.62 6.9 28.64 7.97 25.38 5.19 23.36 8.62 23.37 9.68 20.1" fill="#fff"/><polygon points="106.84 36.63 107.9 39.9 111.33 39.89 108.55 41.9 109.62 45.17 106.84 43.14 104.07 45.17 105.14 41.9 102.35 39.89 105.79 39.9 106.84 36.63" fill="#fff"/><polygon points="87.39 36.63 88.44 39.9 91.88 39.89 89.1 41.9 90.17 45.17 87.39 43.14 84.61 45.17 85.68 41.9 82.9 39.89 86.34 39.9 87.39 36.63" fill="#fff"/><polygon points="67.97 36.63 69.02 39.9 72.46 39.89 69.68 41.9 70.75 45.17 67.97 43.14 65.19 45.17 66.26 41.9 63.48 39.89 66.92 39.9 67.97 36.63" fill="#fff"/><polygon points="48.55 36.63 49.61 39.9 53.04 39.89 50.26 41.9 51.33 45.17 48.55 43.14 45.77 45.17 46.84 41.9 44.06 39.89 47.5 39.9 48.55 36.63" fill="#fff"/><polygon points="29.13 36.63 30.19 39.9 33.62 39.89 30.84 41.9 31.91 45.17 29.13 43.14 26.35 45.17 27.43 41.9 24.64 39.89 28.08 39.9 29.13 36.63" fill="#fff"/><polygon points="9.68 36.63 10.73 39.9 14.17 39.89 11.38 41.9 12.46 45.17 9.68 43.14 6.9 45.17 7.97 41.9 5.19 39.89 8.62 39.9 9.68 36.63" fill="#fff"/><polygon points="106.84 53.15 107.9 56.42 111.33 56.41 108.55 58.43 109.62 61.7 106.84 59.67 104.07 61.7 105.14 58.43 102.35 56.41 105.79 56.42 106.84 53.15" fill="#fff"/><polygon points="87.39 53.15 88.44 56.42 91.88 56.41 89.1 58.43 90.17 61.7 87.39 59.67 84.61 61.7 85.68 58.43 82.9 56.41 86.34 56.42 87.39 53.15" fill="#fff"/><polygon points="67.97 53.15 69.02 56.42 72.46 56.41 69.68 58.43 70.75 61.7 67.97 59.67 65.19 61.7 66.26 58.43 63.48 56.41 66.92 56.42 67.97 53.15" fill="#fff"/><polygon points="48.55 53.15 49.61 56.42 53.04 56.41 50.26 58.43 51.33 61.7 48.55 59.67 45.77 61.7 46.84 58.43 44.06 56.41 47.5 56.42 48.55 53.15" fill="#fff"/><polygon points="29.13 53.15 30.19 56.42 33.62 56.41 30.84 58.43 31.91 61.7 29.13 59.67 26.35 61.7 27.43 58.43 24.64 56.41 28.08 56.42 29.13 53.15" fill="#fff"/><polygon points="9.68 53.15 10.73 56.42 14.17 56.41 11.38 58.43 12.46 61.7 9.68 59.67 6.9 61.7 7.97 58.43 5.19 56.41 8.62 56.42 9.68 53.15" fill="#fff"/><polygon points="106.84 69.66 107.9 72.93 111.33 72.92 108.55 74.93 109.62 78.2 106.84 76.17 104.07 78.2 105.14 74.93 102.35 72.92 105.79 72.93 106.84 69.66" fill="#fff"/><polygon points="87.39 69.66 88.44 72.93 91.88 72.92 89.1 74.93 90.17 78.2 87.39 76.17 84.61 78.2 85.68 74.93 82.9 72.92 86.34 72.93 87.39 69.66" fill="#fff"/><polygon points="67.97 69.66 69.02 72.93 72.46 72.92 69.68 74.93 70.75 78.2 67.97 76.17 65.19 78.2 66.26 74.93 63.48 72.92 66.92 72.93 67.97 69.66" fill="#fff"/><polygon points="48.55 69.66 49.61 72.93 53.04 72.92 50.26 74.93 51.33 78.2 48.55 76.17 45.77 78.2 46.84 74.93 44.06 72.92 47.5 72.93 48.55 69.66" fill="#fff"/><polygon points="29.13 69.66 30.19 72.93 33.62 72.92 30.84 74.93 31.91 78.2 29.13 76.17 26.35 78.2 27.43 74.93 24.64 72.92 28.08 72.93 29.13 69.66" fill="#fff"/><polygon points="9.68 69.66 10.73 72.93 14.17 72.92 11.38 74.93 12.46 78.2 9.68 76.17 6.9 78.2 7.97 74.93 5.19 72.92 8.62 72.93 9.68 69.66" fill="#fff"/><polygon points="97.14 11.87 98.2 15.14 101.63 15.13 98.85 17.15 99.92 20.41 97.14 18.38 94.37 20.41 95.44 17.15 92.65 15.13 96.09 15.14 97.14 11.87" fill="#fff"/><polygon points="77.72 11.87 78.78 15.14 82.22 15.13 79.43 17.15 80.5 20.41 77.72 18.38 74.95 20.41 76.02 17.15 73.23 15.13 76.67 15.14 77.72 11.87" fill="#fff"/><polygon points="58.31 11.87 59.36 15.14 62.8 15.13 60.01 17.15 61.08 20.41 58.31 18.38 55.53 20.41 56.6 17.15 53.81 15.13 57.25 15.14 58.31 11.87" fill="#fff"/><polygon points="38.88 11.87 39.94 15.14 43.38 15.13 40.59 17.15 41.66 20.41 38.88 18.38 36.11 20.41 37.18 17.15 34.39 15.13 37.83 15.14 38.88 11.87" fill="#fff"/><polygon points="19.43 11.87 20.49 15.14 23.92 15.13 21.14 17.15 22.21 20.41 19.43 18.38 16.66 20.41 17.73 17.15 14.94 15.13 18.38 15.14 19.43 11.87" fill="#fff"/><polygon points="97.14 28.39 98.2 31.66 101.63 31.66 98.85 33.67 99.92 36.94 97.14 34.91 94.37 36.94 95.44 33.67 92.65 31.66 96.09 31.66 97.14 28.39" fill="#fff"/><polygon points="77.72 28.39 78.78 31.66 82.22 31.66 79.43 33.67 80.5 36.94 77.72 34.91 74.95 36.94 76.02 33.67 73.23 31.66 76.67 31.66 77.72 28.39" fill="#fff"/><polygon points="58.31 28.39 59.36 31.66 62.8 31.66 60.01 33.67 61.08 36.94 58.31 34.91 55.53 36.94 56.6 33.67 53.81 31.66 57.25 31.66 58.31 28.39" fill="#fff"/><polygon points="38.88 28.39 39.94 31.66 43.38 31.66 40.59 33.67 41.66 36.94 38.88 34.91 36.11 36.94 37.18 33.67 34.39 31.66 37.83 31.66 38.88 28.39" fill="#fff"/><polygon points="19.43 28.39 20.49 31.66 23.92 31.66 21.14 33.67 22.21 36.94 19.43 34.91 16.66 36.94 17.73 33.67 14.94 31.66 18.38 31.66 19.43 28.39" fill="#fff"/><polygon points="97.14 44.92 98.2 48.19 101.63 48.18 98.85 50.2 99.92 53.46 97.14 51.44 94.37 53.46 95.44 50.2 92.65 48.18 96.09 48.19 97.14 44.92" fill="#fff"/><polygon points="77.72 44.92 78.78 48.19 82.22 48.18 79.43 50.2 80.5 53.46 77.72 51.44 74.95 53.46 76.02 50.2 73.23 48.18 76.67 48.19 77.72 44.92" fill="#fff"/><polygon points="58.31 44.92 59.36 48.19 62.8 48.18 60.01 50.2 61.08 53.46 58.31 51.44 55.53 53.46 56.6 50.2 53.81 48.18 57.25 48.19 58.31 44.92" fill="#fff"/><polygon points="38.88 44.92 39.94 48.19 43.38 48.18 40.59 50.2 41.66 53.46 38.88 51.44 36.11 53.46 37.18 50.2 34.39 48.18 37.83 48.19 38.88 44.92" fill="#fff"/><polygon points="19.43 44.92 20.49 48.19 23.92 48.18 21.14 50.2 22.21 53.46 19.43 51.44 16.66 53.46 17.73 50.2 14.94 48.18 18.38 48.19 19.43 44.92" fill="#fff"/><polygon points="97.14 61.42 98.2 64.69 101.63 64.69 98.85 66.7 99.92 69.97 97.14 67.94 94.37 69.97 95.44 66.7 92.65 64.69 96.09 64.69 97.14 61.42" fill="#fff"/><polygon points="77.72 61.42 78.78 64.69 82.22 64.69 79.43 66.7 80.5 69.97 77.72 67.94 74.95 69.97 76.02 66.7 73.23 64.69 76.67 64.69 77.72 61.42" fill="#fff"/><polygon points="58.31 61.42 59.36 64.69 62.8 64.69 60.01 66.7 61.08 69.97 58.31 67.94 55.53 69.97 56.6 66.7 53.81 64.69 57.25 64.69 58.31 61.42" fill="#fff"/><polygon points="38.88 61.42 39.94 64.69 43.38 64.69 40.59 66.7 41.66 69.97 38.88 67.94 36.11 69.97 37.18 66.7 34.39 64.69 37.83 64.69 38.88 61.42" fill="#fff"/><polygon points="19.43 61.42 20.49 64.69 23.92 64.69 21.14 66.7 22.21 69.97 19.43 67.94 16.66 69.97 17.73 66.7 14.94 64.69 18.38 64.69 19.43 61.42" fill="#fff"/></svg>